0
SECTION
2
HEADER
9
$INSUNITS
70
4
0
ENDSEC
0
SECTION
2
TABLES
0
TABLE
2
LTYPE
0
LTYPE
72
65
70
64
2
CONTINUOUS
3
______
73
0
40
0
0
ENDTAB
0
TABLE
2
LAYER
0
ENDTAB
0
ENDSEC
0
SECTION
2
ENTITIES
0
LINE
8
0
10
22.075
20
-12.05
11
35.075
21
-12.05
0
LINE
8
0
10
22.075
20
-26.05
11
35.075
21
-26.05
0
LINE
8
0
10
21.575
20
-12.55
11
21.575
21
-25.55
0
LINE
8
0
10
35.575
20
-12.55
11
35.575
21
-25.55
0
ARC
8
0
10
22.075
20
-12.55
40
0.5
50
90
51
180
0
ARC
8
0
10
35.075
20
-12.55
40
0.5
50
0
51
90
0
ARC
8
0
10
22.075
20
-25.55
40
0.5
50
180
51
270
0
ARC
8
0
10
35.075
20
-25.55
40
0.5
50
270
51
0
0
LINE
8
0
10
60.175
20
-12.05
11
73.175
21
-12.05
0
LINE
8
0
10
60.175
20
-26.05
11
73.175
21
-26.05
0
LINE
8
0
10
59.675
20
-12.55
11
59.675
21
-25.55
0
LINE
8
0
10
73.675
20
-12.55
11
73.675
21
-25.55
0
ARC
8
0
10
60.175
20
-12.55
40
0.5
50
90
51
180
0
ARC
8
0
10
73.175
20
-12.55
40
0.5
50
0
51
90
0
ARC
8
0
10
60.175
20
-25.55
40
0.5
50
180
51
270
0
ARC
8
0
10
73.175
20
-25.55
40
0.5
50
270
51
0
0
LINE
8
0
10
3.025
20
-31.1
11
16.025
21
-31.1
0
LINE
8
0
10
3.025
20
-45.1
11
16.025
21
-45.1
0
LINE
8
0
10
2.525
20
-31.6
11
2.525
21
-44.6
0
LINE
8
0
10
16.525
20
-31.6
11
16.525
21
-44.6
0
ARC
8
0
10
3.025
20
-31.6
40
0.5
50
90
51
180
0
ARC
8
0
10
16.025
20
-31.6
40
0.5
50
0
51
90
0
ARC
8
0
10
3.025
20
-44.6
40
0.5
50
180
51
270
0
ARC
8
0
10
16.025
20
-44.6
40
0.5
50
270
51
0
0
LINE
8
0
10
22.075
20
-31.1
11
35.075
21
-31.1
0
LINE
8
0
10
22.075
20
-45.1
11
35.075
21
-45.1
0
LINE
8
0
10
21.575
20
-31.6
11
21.575
21
-44.6
0
LINE
8
0
10
35.575
20
-31.6
11
35.575
21
-44.6
0
ARC
8
0
10
22.075
20
-31.6
40
0.5
50
90
51
180
0
ARC
8
0
10
35.075
20
-31.6
40
0.5
50
0
51
90
0
ARC
8
0
10
22.075
20
-44.6
40
0.5
50
180
51
270
0
ARC
8
0
10
35.075
20
-44.6
40
0.5
50
270
51
0
0
LINE
8
0
10
41.125
20
-31.1
11
54.125
21
-31.1
0
LINE
8
0
10
41.125
20
-45.1
11
54.125
21
-45.1
0
LINE
8
0
10
40.625
20
-31.6
11
40.625
21
-44.6
0
LINE
8
0
10
54.625
20
-31.6
11
54.625
21
-44.6
0
ARC
8
0
10
41.125
20
-31.6
40
0.5
50
90
51
180
0
ARC
8
0
10
54.125
20
-31.6
40
0.5
50
0
51
90
0
ARC
8
0
10
41.125
20
-44.6
40
0.5
50
180
51
270
0
ARC
8
0
10
54.125
20
-44.6
40
0.5
50
270
51
0
0
LINE
8
0
10
60.175
20
-31.1
11
73.175
21
-31.1
0
LINE
8
0
10
60.175
20
-45.1
11
73.175
21
-45.1
0
LINE
8
0
10
59.675
20
-31.6
11
59.675
21
-44.6
0
LINE
8
0
10
73.675
20
-31.6
11
73.675
21
-44.6
0
ARC
8
0
10
60.175
20
-31.6
40
0.5
50
90
51
180
0
ARC
8
0
10
73.175
20
-31.6
40
0.5
50
0
51
90
0
ARC
8
0
10
60.175
20
-44.6
40
0.5
50
180
51
270
0
ARC
8
0
10
73.175
20
-44.6
40
0.5
50
270
51
0
0
LINE
8
0
10
79.225
20
-31.1
11
92.225
21
-31.1
0
LINE
8
0
10
79.225
20
-45.1
11
92.225
21
-45.1
0
LINE
8
0
10
78.725
20
-31.6
11
78.725
21
-44.6
0
LINE
8
0
10
92.725
20
-31.6
11
92.725
21
-44.6
0
ARC
8
0
10
79.225
20
-31.6
40
0.5
50
90
51
180
0
ARC
8
0
10
92.225
20
-31.6
40
0.5
50
0
51
90
0
ARC
8
0
10
79.225
20
-44.6
40
0.5
50
180
51
270
0
ARC
8
0
10
92.225
20
-44.6
40
0.5
50
270
51
0
0
LINE
8
0
10
3.025
20
-50.15
11
16.025
21
-50.15
0
LINE
8
0
10
3.025
20
-64.15
11
16.025
21
-64.15
0
LINE
8
0
10
2.525
20
-50.65
11
2.525
21
-63.65
0
LINE
8
0
10
16.525
20
-50.65
11
16.525
21
-63.65
0
ARC
8
0
10
3.025
20
-50.65
40
0.5
50
90
51
180
0
ARC
8
0
10
16.025
20
-50.65
40
0.5
50
0
51
90
0
ARC
8
0
10
3.025
20
-63.65
40
0.5
50
180
51
270
0
ARC
8
0
10
16.025
20
-63.65
40
0.5
50
270
51
0
0
LINE
8
0
10
22.075
20
-50.15
11
35.075
21
-50.15
0
LINE
8
0
10
22.075
20
-64.15
11
35.075
21
-64.15
0
LINE
8
0
10
21.575
20
-50.65
11
21.575
21
-63.65
0
LINE
8
0
10
35.575
20
-50.65
11
35.575
21
-63.65
0
ARC
8
0
10
22.075
20
-50.65
40
0.5
50
90
51
180
0
ARC
8
0
10
35.075
20
-50.65
40
0.5
50
0
51
90
0
ARC
8
0
10
22.075
20
-63.65
40
0.5
50
180
51
270
0
ARC
8
0
10
35.075
20
-63.65
40
0.5
50
270
51
0
0
LINE
8
0
10
41.125
20
-50.15
11
54.125
21
-50.15
0
LINE
8
0
10
41.125
20
-64.15
11
54.125
21
-64.15
0
LINE
8
0
10
40.625
20
-50.65
11
40.625
21
-63.65
0
LINE
8
0
10
54.625
20
-50.65
11
54.625
21
-63.65
0
ARC
8
0
10
41.125
20
-50.65
40
0.5
50
90
51
180
0
ARC
8
0
10
54.125
20
-50.65
40
0.5
50
0
51
90
0
ARC
8
0
10
41.125
20
-63.65
40
0.5
50
180
51
270
0
ARC
8
0
10
54.125
20
-63.65
40
0.5
50
270
51
0
0
LINE
8
0
10
60.175
20
-50.15
11
73.175
21
-50.15
0
LINE
8
0
10
60.175
20
-64.15
11
73.175
21
-64.15
0
LINE
8
0
10
59.675
20
-50.65
11
59.675
21
-63.65
0
LINE
8
0
10
73.675
20
-50.65
11
73.675
21
-63.65
0
ARC
8
0
10
60.175
20
-50.65
40
0.5
50
90
51
180
0
ARC
8
0
10
73.175
20
-50.65
40
0.5
50
0
51
90
0
ARC
8
0
10
60.175
20
-63.65
40
0.5
50
180
51
270
0
ARC
8
0
10
73.175
20
-63.65
40
0.5
50
270
51
0
0
LINE
8
0
10
79.225
20
-50.15
11
92.225
21
-50.15
0
LINE
8
0
10
79.225
20
-64.15
11
92.225
21
-64.15
0
LINE
8
0
10
78.725
20
-50.65
11
78.725
21
-63.65
0
LINE
8
0
10
92.725
20
-50.65
11
92.725
21
-63.65
0
ARC
8
0
10
79.225
20
-50.65
40
0.5
50
90
51
180
0
ARC
8
0
10
92.225
20
-50.65
40
0.5
50
0
51
90
0
ARC
8
0
10
79.225
20
-63.65
40
0.5
50
180
51
270
0
ARC
8
0
10
92.225
20
-63.65
40
0.5
50
270
51
0
0
LINE
8
0
10
3.025
20
-69.2
11
16.025
21
-69.2
0
LINE
8
0
10
3.025
20
-83.2
11
16.025
21
-83.2
0
LINE
8
0
10
2.525
20
-69.7
11
2.525
21
-82.7
0
LINE
8
0
10
16.525
20
-69.7
11
16.525
21
-82.7
0
ARC
8
0
10
3.025
20
-69.7
40
0.5
50
90
51
180
0
ARC
8
0
10
16.025
20
-69.7
40
0.5
50
0
51
90
0
ARC
8
0
10
3.025
20
-82.7
40
0.5
50
180
51
270
0
ARC
8
0
10
16.025
20
-82.7
40
0.5
50
270
51
0
0
LINE
8
0
10
22.075
20
-69.2
11
35.075
21
-69.2
0
LINE
8
0
10
22.075
20
-83.2
11
35.075
21
-83.2
0
LINE
8
0
10
21.575
20
-69.7
11
21.575
21
-82.7
0
LINE
8
0
10
35.575
20
-69.7
11
35.575
21
-82.7
0
ARC
8
0
10
22.075
20
-69.7
40
0.5
50
90
51
180
0
ARC
8
0
10
35.075
20
-69.7
40
0.5
50
0
51
90
0
ARC
8
0
10
22.075
20
-82.7
40
0.5
50
180
51
270
0
ARC
8
0
10
35.075
20
-82.7
40
0.5
50
270
51
0
0
LINE
8
0
10
41.125
20
-69.2
11
54.125
21
-69.2
0
LINE
8
0
10
41.125
20
-83.2
11
54.125
21
-83.2
0
LINE
8
0
10
40.625
20
-69.7
11
40.625
21
-82.7
0
LINE
8
0
10
54.625
20
-69.7
11
54.625
21
-82.7
0
ARC
8
0
10
41.125
20
-69.7
40
0.5
50
90
51
180
0
ARC
8
0
10
54.125
20
-69.7
40
0.5
50
0
51
90
0
ARC
8
0
10
41.125
20
-82.7
40
0.5
50
180
51
270
0
ARC
8
0
10
54.125
20
-82.7
40
0.5
50
270
51
0
0
LINE
8
0
10
60.175
20
-69.2
11
73.175
21
-69.2
0
LINE
8
0
10
60.175
20
-83.2
11
73.175
21
-83.2
0
LINE
8
0
10
59.675
20
-69.7
11
59.675
21
-82.7
0
LINE
8
0
10
73.675
20
-69.7
11
73.675
21
-82.7
0
ARC
8
0
10
60.175
20
-69.7
40
0.5
50
90
51
180
0
ARC
8
0
10
73.175
20
-69.7
40
0.5
50
0
51
90
0
ARC
8
0
10
60.175
20
-82.7
40
0.5
50
180
51
270
0
ARC
8
0
10
73.175
20
-82.7
40
0.5
50
270
51
0
0
LINE
8
0
10
79.225
20
-69.2
11
92.225
21
-69.2
0
LINE
8
0
10
79.225
20
-83.2
11
92.225
21
-83.2
0
LINE
8
0
10
78.725
20
-69.7
11
78.725
21
-82.7
0
LINE
8
0
10
92.725
20
-69.7
11
92.725
21
-82.7
0
ARC
8
0
10
79.225
20
-69.7
40
0.5
50
90
51
180
0
ARC
8
0
10
92.225
20
-69.7
40
0.5
50
0
51
90
0
ARC
8
0
10
79.225
20
-82.7
40
0.5
50
180
51
270
0
ARC
8
0
10
92.225
20
-82.7
40
0.5
50
270
51
0
0
LINE
8
0
10
0
20
-85.725
11
95.25
21
-85.725
0
LINE
8
0
10
0
20
-9.525
11
95.25
21
-9.525
0
LINE
8
0
10
0
20
-85.725
11
0
21
-9.525
0
LINE
8
0
10
95.25
20
-85.725
11
95.25
21
-9.525
0
ENDSEC
0
EOF